<?xml version="1.0" encoding="utf-8"?>
<!-- Generator: Adobe Illustrator 21.1.0, SVG Export Plug-In . SVG Version: 6.00 Build 0)  -->
<svg version="1.1" id="_x5F_" xmlns="http://www.w3.org/2000/svg" xmlns:xlink="http://www.w3.org/1999/xlink" x="0px" y="0px"
	 viewBox="0 0 970 240" style="enable-background:new 0 0 970 240;" xml:space="preserve">
<style type="text/css">
	.st0{fill:url(#SVGID_1_);}
	.st1{fill:url(#SVGID_2_);}
</style>
<g>
	
		<linearGradient id="SVGID_1_" gradientUnits="userSpaceOnUse" x1="477.5112" y1="-259.0579" x2="478.4543" y2="-255.5502" gradientTransform="matrix(970 0 0 240 -463132 61973.0039)">
		<stop  offset="0" style="stop-color:#4974F2"/>
		<stop  offset="1" style="stop-color:#5EE4EF"/>
	</linearGradient>
	<path class="st0" d="M510.5,127C309.3,153.5,139.1,142.7,0,94.6V220c0,11,9,20,20,20h930c11,0,20-9,20-20v-57
		C848.8,114.5,695.6,102.5,510.5,127z"/>
	
		<linearGradient id="SVGID_2_" gradientUnits="userSpaceOnUse" x1="478.9141" y1="-258.0826" x2="478.7337" y2="-256.859" gradientTransform="matrix(-1400 0 0 685 670913 176670.7656)">
		<stop  offset="0" style="stop-color:#4974F2"/>
		<stop  offset="1" style="stop-color:#5EE4EF"/>
	</linearGradient>
	<path class="st1" d="M950,0H20C9,0,0,9,0,20v74.6c139.1,48.1,309.3,58.9,510.5,32.4c185.1-24.4,338.3-12.4,459.5,36V20
		C970,9,961,0,950,0z"/>
</g>
</svg>
