<?xml version="1.0" encoding="utf-8"?>
<!-- Generator: Sublime by Nagato Shumbon(shun@ooxx.dk). Icon Version: 1.00 Build 0)  -->
<svg xmlns="http://www.w3.org/2000/svg" xmlns:xlink="http://www.w3.org/1999/xlink" viewBox="0 0 64 64" version="1.1">
<g id="surface1">
<path style=" fill:#85CBF8;" d="M 57 32 C 57 47.464844 44.464844 60 29 60 C 13.535156 60 1 47.464844 1 32 C 1 16.535156 13.535156 4 29 4 C 44.464844 4 57 16.535156 57 32 Z "></path>
<path style=" fill:#7BBEEB;" d="M 29 4 L 29 60 C 44.464844 60 57 47.464844 57 32 C 57 16.535156 44.464844 4 29 4 Z "></path>
<path style=" fill:#FAEFDE;" d="M 61.097656 42.097656 L 32.085938 30.585938 L 43.597656 59.597656 L 49.085938 50.316406 L 59.289063 60.519531 L 62.054688 57.757813 L 51.851563 47.554688 Z "></path>
<path style=" fill:#FFF7F0;" d="M 61.097656 42.097656 L 32.085938 30.585938 L 32.4375 31.476563 C 33.414063 33.9375 35.363281 35.886719 37.824219 36.863281 L 52.671875 42.753906 C 55.429688 43.847656 58.539063 43.605469 61.097656 42.097656 Z "></path>
<path style=" fill:#8D6C9F;" d="M 4 30 C 3.449219 30 3 30.449219 3 31 L 3 33 C 3 33.550781 3.449219 34 4 34 C 4.550781 34 5 33.550781 5 33 L 5 31 C 5 30.449219 4.550781 30 4 30 Z "></path>
<path style=" fill:#8D6C9F;" d="M 9 34 C 9.550781 34 10 33.550781 10 33 L 10 31 C 10 30.449219 9.550781 30 9 30 C 8.449219 30 8 30.449219 8 31 L 8 33 C 8 33.550781 8.449219 34 9 34 Z "></path>
<path style=" fill:#8D6C9F;" d="M 14 34 C 14.550781 34 15 33.550781 15 33 L 15 31 C 15 30.449219 14.550781 30 14 30 C 13.449219 30 13 30.449219 13 31 L 13 33 C 13 33.550781 13.449219 34 14 34 Z "></path>
<path style=" fill:#8D6C9F;" d="M 19 34 C 19.550781 34 20 33.550781 20 33 L 20 31 C 20 30.449219 19.550781 30 19 30 C 18.449219 30 18 30.449219 18 31 L 18 33 C 18 33.550781 18.449219 34 19 34 Z "></path>
<path style=" fill:#8D6C9F;" d="M 24 34 C 24.550781 34 25 33.550781 25 33 L 25 31 C 25 30.449219 24.550781 30 24 30 C 23.449219 30 23 30.449219 23 31 L 23 33 C 23 33.550781 23.449219 34 24 34 Z "></path>
<path style=" fill:#8D6C9F;" d="M 29 34 C 29.550781 34 30 33.550781 30 33 L 30 31 C 30 30.449219 29.550781 30 29 30 C 28.449219 30 28 30.449219 28 31 L 28 33 C 28 33.550781 28.449219 34 29 34 Z "></path>
<path style=" fill:#8D6C9F;" d="M 44 34 C 44.550781 34 45 33.550781 45 33 L 45 31 C 45 30.449219 44.550781 30 44 30 C 43.449219 30 43 30.449219 43 31 L 43 33 C 43 33.550781 43.449219 34 44 34 Z "></path>
<path style=" fill:#8D6C9F;" d="M 49 34 C 49.550781 34 50 33.550781 50 33 L 50 31 C 50 30.449219 49.550781 30 49 30 C 48.449219 30 48 30.449219 48 31 L 48 33 C 48 33.550781 48.449219 34 49 34 Z "></path>
<path style=" fill:#8D6C9F;" d="M 54 34 C 54.550781 34 55 33.550781 55 33 L 55 31 C 55 30.449219 54.550781 30 54 30 C 53.449219 30 53 30.449219 53 31 L 53 33 C 53 33.550781 53.449219 34 54 34 Z "></path>
<path style=" fill:#8D6C9F;" d="M 62.761719 57.050781 L 53.46875 47.761719 L 61.609375 42.960938 C 61.929688 42.769531 62.121094 42.398438 62.089844 42.019531 C 62.058594 41.640625 61.820313 41.308594 61.46875 41.171875 L 57.039063 39.410156 C 57.671875 37.050781 58 34.558594 58 32 C 58 25.273438 55.691406 19.082031 51.835938 14.15625 C 51.835938 14.15625 51.835938 14.152344 51.832031 14.152344 C 51.828125 14.148438 51.824219 14.148438 51.824219 14.144531 C 46.511719 7.367188 38.257813 3 29 3 C 19.761719 3 11.519531 7.351563 6.207031 14.101563 C 6.195313 14.121094 6.175781 14.132813 6.160156 14.148438 C 6.15625 14.15625 6.15625 14.164063 6.152344 14.171875 C 2.304688 19.09375 0 25.28125 0 32 C 0 38.710938 2.296875 44.886719 6.136719 49.808594 C 6.148438 49.828125 6.148438 49.851563 6.160156 49.871094 C 6.214844 49.957031 6.285156 50.027344 6.359375 50.09375 C 11.679688 56.734375 19.847656 61 29 61 C 33.628906 61 38 59.910156 41.878906 57.980469 L 42.671875 59.96875 C 42.808594 60.320313 43.140625 60.558594 43.519531 60.589844 C 43.898438 60.621094 44.261719 60.441406 44.460938 60.109375 L 48.28125 53.640625 L 49.289063 51.929688 L 49.679688 52.320313 L 58.578125 61.230469 C 58.769531 61.410156 59.03125 61.519531 59.289063 61.519531 C 59.558594 61.519531 59.808594 61.410156 60 61.230469 L 62.761719 58.460938 C 63.148438 58.070313 63.148438 57.441406 62.761719 57.050781 Z M 49.476563 14.429688 C 47.527344 15.53125 45.261719 16.449219 42.773438 17.171875 C 41.183594 12.304688 38.835938 8.40625 36.039063 5.9375 C 41.339844 7.371094 45.996094 10.378906 49.476563 14.429688 Z M 28 5.089844 L 28 19.003906 C 24.1875 18.9375 20.519531 18.488281 17.183594 17.691406 C 19.539063 10.597656 23.554688 5.730469 28 5.089844 Z M 30 5.089844 C 34.445313 5.730469 38.460938 10.597656 40.816406 17.691406 C 37.480469 18.488281 33.8125 18.9375 30 19.003906 Z M 21.960938 5.9375 C 19.164063 8.40625 16.816406 12.304688 15.226563 17.171875 C 12.738281 16.449219 10.472656 15.53125 8.523438 14.429688 C 12.003906 10.378906 16.660156 7.371094 21.960938 5.9375 Z M 7.265625 16.003906 C 9.402344 17.25 11.902344 18.285156 14.65625 19.085938 C 13.996094 21.507813 13.511719 24.128906 13.242188 26.902344 C 13.191406 27.453125 13.59375 27.941406 14.140625 27.996094 C 14.699219 28.046875 15.179688 27.644531 15.234375 27.097656 C 15.492188 24.4375 15.96875 21.929688 16.605469 19.609375 C 20.128906 20.457031 23.992188 20.9375 28 21.007813 L 28 27 C 28 27.550781 28.449219 28 29 28 C 29.550781 28 30 27.550781 30 27 L 30 21.003906 C 34.007813 20.9375 37.871094 20.457031 41.394531 19.605469 C 42.03125 21.929688 42.511719 24.4375 42.765625 27.097656 C 42.816406 27.617188 43.25 28.003906 43.761719 28.003906 C 43.792969 28.003906 43.824219 28.003906 43.859375 28 C 44.40625 27.945313 44.808594 27.457031 44.757813 26.90625 C 44.488281 24.128906 44.003906 21.507813 43.34375 19.085938 C 46.097656 18.285156 48.597656 17.25 50.734375 16.003906 C 54.039063 20.484375 56 26.015625 56 32 C 56 34.300781 55.710938 36.539063 55.171875 38.671875 L 40 32.648438 L 40 31 C 40 30.449219 39.550781 30 39 30 C 38.449219 30 38 30.449219 38 31 L 38 31.851563 L 32.449219 29.648438 C 32.078125 29.511719 31.660156 29.601563 31.378906 29.878906 C 31.101563 30.160156 31.011719 30.578125 31.148438 30.949219 L 36.121094 43.449219 C 34.140625 43.191406 32.082031 43.066406 30 43.03125 L 30 37 C 30 36.449219 29.550781 36 29 36 C 28.449219 36 28 36.449219 28 37 L 28 43.015625 C 23.992188 43.082031 20.128906 43.5625 16.609375 44.410156 C 15.96875 42.082031 15.488281 39.566406 15.230469 36.898438 C 15.179688 36.359375 14.699219 35.949219 14.140625 36.011719 C 13.589844 36.058594 13.191406 36.550781 13.238281 37.101563 C 13.507813 39.882813 13.996094 42.507813 14.65625 44.933594 C 11.910156 45.734375 9.414063 46.765625 7.273438 48.011719 C 3.960938 43.527344 2 37.988281 2 32 C 2 26.015625 3.957031 20.484375 7.265625 16.003906 Z M 39 50.71875 C 36.65625 55.382813 33.453125 58.421875 30 58.917969 L 30 45.019531 C 32.390625 45.0625 34.730469 45.246094 36.960938 45.589844 Z M 28 58.910156 C 23.558594 58.269531 19.546875 53.410156 17.1875 46.324219 C 20.523438 45.53125 24.1875 45.082031 28 45.015625 Z M 8.535156 49.585938 C 10.484375 48.484375 12.746094 47.566406 15.230469 46.847656 C 16.820313 51.703125 19.167969 55.597656 21.960938 58.0625 C 16.664063 56.632813 12.015625 53.628906 8.535156 49.585938 Z M 36.054688 58.050781 C 37.488281 56.777344 38.8125 55.132813 39.96875 53.160156 L 41.140625 56.101563 C 39.53125 56.917969 37.824219 57.570313 36.054688 58.050781 Z M 59.289063 59.101563 L 51.019531 50.839844 L 49.789063 49.609375 C 49.730469 49.539063 49.648438 49.488281 49.570313 49.441406 C 49.429688 49.359375 49.261719 49.308594 49.089844 49.308594 C 49.050781 49.308594 49 49.320313 48.960938 49.320313 C 48.648438 49.359375 48.378906 49.539063 48.230469 49.808594 L 46.75 52.308594 L 44.121094 56.738281 L 43.769531 57.328125 L 43.648438 57.019531 L 42.898438 55.128906 L 41.199219 50.839844 L 40.148438 48.179688 L 39.28125 46 L 38.398438 43.800781 L 33.871094 32.371094 L 43.320313 36.121094 L 44.691406 36.660156 L 54.589844 40.589844 L 56.449219 41.328125 L 58.828125 42.269531 L 55.210938 44.410156 L 51.808594 46.410156 L 51.339844 46.691406 C 51.078125 46.851563 50.898438 47.121094 50.859375 47.429688 C 50.839844 47.550781 50.851563 47.671875 50.878906 47.78125 C 50.921875 47.960938 51.011719 48.128906 51.140625 48.261719 L 51.949219 49.070313 L 51.960938 49.089844 L 60.640625 57.761719 Z "></path>
</g>
</svg>