<svg xmlns="http://www.w3.org/2000/svg" viewBox="0 0 85.14 57.05"><defs><style>.a{fill:#110070;}.b{fill:#fff;}.c{fill:red;}.d{fill:none;stroke:#000;stroke-width:0.1px;}</style></defs><title>資產 1</title><rect class="a" x="0.05" y="0.05" width="85.04" height="56.95"/><polygon class="b" points="71.58 32.76 70.05 31.64 68.52 32.76 69.1 30.95 67.57 29.84 69.46 29.84 70.05 28.04 70.63 29.84 72.53 29.84 71 30.95 71.58 32.76"/><polygon class="b" points="20.63 46.03 24.35 49.95 23.68 44.56 28.98 44.14 24.43 41.27 27.33 36.9 22.32 38.63 20.63 33.67 18.95 38.63 13.94 36.9 16.84 41.27 12.28 44.14 17.59 44.56 16.92 49.95 20.63 46.03"/><polygon class="b" points="53.23 26.13 54.95 27.95 54.64 25.45 57.1 25.25 54.98 23.92 56.33 21.9 54.01 22.7 53.23 20.4 52.45 22.7 50.12 21.9 51.47 23.92 49.36 25.25 51.82 25.45 51.51 27.95 53.23 26.13"/><polygon class="b" points="64.18 10.77 65.9 12.59 65.59 10.09 68.05 9.89 65.94 8.57 67.28 6.54 64.96 7.34 64.18 5.04 63.4 7.34 61.07 6.54 62.42 8.57 60.31 9.89 62.77 10.09 62.45 12.59 64.18 10.77"/><polygon class="b" points="64.18 48.96 65.9 50.78 65.59 48.28 68.05 48.08 65.94 46.75 67.28 44.73 64.96 45.53 64.18 43.23 63.4 45.53 61.07 44.73 62.42 46.75 60.31 48.08 62.77 48.28 62.45 50.78 64.18 48.96"/><polygon class="b" points="76.28 22.16 78 23.98 77.69 21.48 80.15 21.29 78.04 19.96 79.38 17.93 77.06 18.73 76.28 16.44 75.5 18.73 73.18 17.93 74.52 19.96 72.41 21.29 74.87 21.48 74.56 23.98 76.28 22.16"/><polygon class="b" points="0.05 0.05 5.32 0.05 16.33 7.43 16.33 0.05 25.78 0.05 25.78 7.43 36.79 0.05 42.05 0.05 42.05 0.05 42.05 3.58 33.36 9.39 42.05 9.39 42.05 18.84 33.36 18.84 42.05 24.66 42.05 28.18 36.79 28.18 25.78 20.8 25.78 28.18 16.33 28.18 16.33 20.8 5.31 28.18 0.05 28.18 0.05 24.66 8.74 18.84 0.05 18.84 0.05 9.39 8.74 9.39 0.05 3.57 0.05 0.05"/><polygon class="c" points="16.33 19.51 16.33 18.84 14 18.84 0.05 28.18 3.39 28.18 16.33 19.51"/><polygon class="c" points="25.78 8.72 25.78 9.39 28.1 9.39 42.05 0.05 38.71 0.05 25.78 8.72"/><polygon class="c" points="0.05 2.28 10.67 9.39 14 9.39 0.05 0.05 0.05 0.05 0.05 2.28"/><polygon class="c" points="28.1 18.84 42.05 28.18 42.05 25.94 31.44 18.84 28.1 18.84"/><polygon class="c" points="23.89 11.28 23.89 0.05 18.22 0.05 18.22 11.28 0.05 11.28 0.05 16.95 18.22 16.95 18.22 28.18 23.89 28.18 23.89 16.95 42.05 16.95 42.05 11.28 23.89 11.28"/><rect class="d" x="0.05" y="0.05" width="85.04" height="56.95"/></svg>