<?xml version="1.0" encoding="utf-8"?>
<!-- Generator: Adobe Illustrator 21.1.0, SVG Export Plug-In . SVG Version: 6.00 Build 0)  -->
<svg version="1.1" id="_x5F_" xmlns="http://www.w3.org/2000/svg" xmlns:xlink="http://www.w3.org/1999/xlink" x="0px" y="0px"
	 viewBox="0 0 484 694" style="enable-background:new 0 0 484 694;" xml:space="preserve">
<style type="text/css">
	.st0{fill:#E6FCFF;}
	.st1{fill:#DEEBFF;}
</style>
<g id="Page-1">
	<g id="home-page" transform="translate(0.000000, -1151.000000)">
		<g id="rack2" transform="translate(-205.000000, 1151.000000)">
			<g id="Group">
				<g id="Shape" transform="translate(0.000000, 6.000000)">
					<path class="st0" d="M170.5,268.5H367L119.5,21c-27-27-72-27-99,0s-27,72,0,99L170.5,268.5z"/>
					<path class="st0" d="M506.5,408H310l259.5,259.5c27,27,72,27,99,0s27-72,0-99L506.5,408z"/>
				</g>
				<g id="Shape_1_">
					<path class="st1" d="M512.5,274.5L667,120c27-27,27-72,0-99s-72-27-99,0L314.5,274.5H512.5z"/>
					<path class="st1" d="M175,414L20.5,568.5c-27,27-27,72,0,99s72,27,99,0L373,414H175z"/>
				</g>
			</g>
		</g>
	</g>
</g>
</svg>
