<?xml version="1.0" encoding="utf-8"?>
<!-- Generator: Sublime by Nagato Shumbon(shun@ooxx.dk). Icon Version: 1.00 Build 0)  -->
<svg xmlns="http://www.w3.org/2000/svg" xmlns:xlink="http://www.w3.org/1999/xlink" viewBox="0 0 64 64" version="1.1">
<g id="surface1">
<path style=" fill:#CDA1A7;" d="M 57 57 L 7 57 C 5.894531 57 5 56.105469 5 55 L 5 9 C 5 7.894531 5.894531 7 7 7 L 57 7 C 58.105469 7 59 7.894531 59 9 L 59 55 C 59 56.105469 58.105469 57 57 57 Z "></path>
<path style=" fill:#C4939C;" d="M 58 57 L 6 57 C 5.449219 57 5 56.550781 5 56 C 5 53.789063 6.789063 52 9 52 L 55 52 C 57.210938 52 59 53.789063 59 56 C 59 56.550781 58.550781 57 58 57 Z "></path>
<path style=" fill:#8D6C9F;" d="M 14 50 C 13.445313 50 13 50.445313 13 51 L 13 53 C 13 53.554688 13.445313 54 14 54 C 14.554688 54 15 53.554688 15 53 L 15 51 C 15 50.445313 14.554688 50 14 50 Z "></path>
<path style=" fill:#8D6C9F;" d="M 9 50 C 8.445313 50 8 50.445313 8 51 L 8 53 C 8 53.554688 8.445313 54 9 54 C 9.554688 54 10 53.554688 10 53 L 10 51 C 10 50.445313 9.554688 50 9 50 Z "></path>
<path style=" fill:#8D6C9F;" d="M 29 50 C 28.445313 50 28 50.445313 28 51 L 28 53 C 28 53.554688 28.445313 54 29 54 C 29.554688 54 30 53.554688 30 53 L 30 51 C 30 50.445313 29.554688 50 29 50 Z "></path>
<path style=" fill:#8D6C9F;" d="M 34 50 C 33.445313 50 33 50.445313 33 51 L 33 53 C 33 53.554688 33.445313 54 34 54 C 34.554688 54 35 53.554688 35 53 L 35 51 C 35 50.445313 34.554688 50 34 50 Z "></path>
<path style=" fill:#8D6C9F;" d="M 39 50 C 38.445313 50 38 50.445313 38 51 L 38 53 C 38 53.554688 38.445313 54 39 54 C 39.554688 54 40 53.554688 40 53 L 40 51 C 40 50.445313 39.554688 50 39 50 Z "></path>
<path style=" fill:#8D6C9F;" d="M 44 50 C 43.445313 50 43 50.445313 43 51 L 43 53 C 43 53.554688 43.445313 54 44 54 C 44.554688 54 45 53.554688 45 53 L 45 51 C 45 50.445313 44.554688 50 44 50 Z "></path>
<path style=" fill:#8D6C9F;" d="M 49 50 C 48.445313 50 48 50.445313 48 51 L 48 53 C 48 53.554688 48.445313 54 49 54 C 49.554688 54 50 53.554688 50 53 L 50 51 C 50 50.445313 49.554688 50 49 50 Z "></path>
<path style=" fill:#8D6C9F;" d="M 54 50 C 53.445313 50 53 50.445313 53 51 L 53 53 C 53 53.554688 53.445313 54 54 54 C 54.554688 54 55 53.554688 55 53 L 55 51 C 55 50.445313 54.554688 50 54 50 Z "></path>
<path style=" fill:#8D6C9F;" d="M 19 50 C 18.445313 50 18 50.445313 18 51 L 18 53 C 18 53.554688 18.445313 54 19 54 C 19.554688 54 20 53.554688 20 53 L 20 51 C 20 50.445313 19.554688 50 19 50 Z "></path>
<path style=" fill:#8D6C9F;" d="M 24 50 C 23.445313 50 23 50.445313 23 51 L 23 53 C 23 53.554688 23.445313 54 24 54 C 24.554688 54 25 53.554688 25 53 L 25 51 C 25 50.445313 24.554688 50 24 50 Z "></path>
<path style=" fill:#8D6C9F;" d="M 57 6 L 7 6 C 5.347656 6 4 7.347656 4 9 L 4 55 C 4 56.652344 5.347656 58 7 58 L 57 58 C 58.652344 58 60 56.652344 60 55 L 60 9 C 60 7.347656 58.652344 6 57 6 Z M 58 55 C 58 55.550781 57.550781 56 57 56 L 7 56 C 6.449219 56 6 55.550781 6 55 L 6 9 C 6 8.449219 6.449219 8 7 8 L 57 8 C 57.550781 8 58 8.449219 58 9 Z "></path>
<path style=" fill:#FAEFDE;" d="M 29 22 L 17.484375 22 L 20.777344 18.707031 C 21.167969 18.316406 21.167969 17.683594 20.777344 17.292969 C 20.386719 16.902344 19.753906 16.902344 19.363281 17.292969 L 14.292969 22.363281 C 13.902344 22.753906 13.902344 23.386719 14.292969 23.777344 L 19.363281 28.847656 C 19.558594 29.042969 19.816406 29.140625 20.070313 29.140625 C 20.328125 29.140625 20.582031 29.042969 20.777344 28.847656 C 21.167969 28.457031 21.167969 27.824219 20.777344 27.433594 L 17.34375 24 L 29 24 C 29.554688 24 30 23.554688 30 23 C 30 22.445313 29.554688 22 29 22 Z "></path>
<path style=" fill:#FAEFDE;" d="M 29 38 L 17.484375 38 L 20.777344 34.707031 C 21.167969 34.316406 21.167969 33.683594 20.777344 33.292969 C 20.386719 32.902344 19.753906 32.902344 19.363281 33.292969 L 14.292969 38.363281 C 13.902344 38.753906 13.902344 39.386719 14.292969 39.777344 L 19.363281 44.847656 C 19.558594 45.042969 19.816406 45.140625 20.070313 45.140625 C 20.328125 45.140625 20.582031 45.042969 20.777344 44.847656 C 21.167969 44.457031 21.167969 43.824219 20.777344 43.433594 L 17.34375 40 L 29 40 C 29.554688 40 30 39.554688 30 39 C 30 38.445313 29.554688 38 29 38 Z "></path>
<path style=" fill:#FAEFDE;" d="M 44.636719 13.292969 C 44.246094 12.902344 43.613281 12.902344 43.222656 13.292969 C 42.832031 13.683594 42.832031 14.316406 43.222656 14.707031 L 46.515625 18 L 35 18 C 34.445313 18 34 18.445313 34 19 C 34 19.554688 34.445313 20 35 20 L 46.65625 20 L 43.222656 23.4375 C 42.828125 23.828125 42.828125 24.460938 43.222656 24.851563 C 43.414063 25.046875 43.671875 25.144531 43.929688 25.144531 C 44.183594 25.144531 44.441406 25.046875 44.636719 24.851563 L 49.707031 19.777344 C 50.097656 19.386719 50.097656 18.757813 49.707031 18.363281 Z "></path>
<path style=" fill:#FAEFDE;" d="M 44.636719 29.292969 C 44.246094 28.902344 43.613281 28.902344 43.222656 29.292969 C 42.832031 29.683594 42.832031 30.316406 43.222656 30.707031 L 46.515625 34 L 35 34 C 34.445313 34 34 34.445313 34 35 C 34 35.554688 34.445313 36 35 36 L 46.65625 36 L 43.222656 39.4375 C 42.828125 39.828125 42.828125 40.460938 43.222656 40.851563 C 43.414063 41.046875 43.671875 41.144531 43.929688 41.144531 C 44.183594 41.144531 44.441406 41.046875 44.636719 40.851563 L 49.707031 35.777344 C 50.097656 35.386719 50.097656 34.757813 49.707031 34.363281 Z "></path>
</g>
</svg>